<svg width="365" height="365" viewBox="0 0 365 365" fill="none" xmlns="http://www.w3.org/2000/svg">
<circle cx="182.5" cy="182.5" r="182.5" fill="black"/>
<path d="M127.914 157.891L100.805 195.977V215H82.3281V195.977L55.2188 157.891H77.0547L91.5859 180.273L106.078 157.891H127.914ZM212.367 157.891V215H193.969V175.234H193.5L178.773 215H164.203L149.242 174.609H148.773V215H131.234V157.891H160.375L171.352 191.25H171.82L182.602 157.891H212.367ZM301.82 157.891V215H283.422V175.234H282.953L268.227 215H253.656L238.695 174.609H238.227V215H220.688V157.891H249.828L260.805 191.25H261.273L272.055 157.891H301.82Z" fill="white"/>
</svg>
